<svg xmlns="http://www.w3.org/2000/svg" width="728" height="90" viewBox="0 0 728 90"><rect width="100%" height="100%" fill="#DDDDDD"/><path fill="#999999" d="M259.95 48.975h10.35l-3.96-10.82q-.29-.72-.6-1.71-.32-.99-.63-2.13-.3 1.14-.61 2.14-.32 1.01-.61 1.75zm8.26-20.24 12.78 32.53h-4.68q-.79 0-1.28-.39-.5-.4-.74-.98l-2.43-6.64h-13.48l-2.43 6.64q-.18.52-.7.94-.52.43-1.28.43h-4.73l12.81-32.53zm45.05 16.26q0 3.58-1.2 6.57-1.19 2.99-3.35 5.16-2.16 2.16-5.2 3.35-3.03 1.19-6.75 1.19h-12.39v-32.53h12.39q3.72 0 6.75 1.2 3.04 1.2 5.2 3.35t3.35 5.14q1.2 3 1.2 6.57m-6.21 0q0-2.68-.71-4.8-.71-2.13-2.05-3.6t-3.24-2.26-4.29-.79h-6.32v22.91h6.32q2.39 0 4.29-.79t3.24-2.26q1.34-1.48 2.05-3.6.71-2.13.71-4.81m20.94-16.26h22.48v2.4q0 1.08-.22 1.75-.23.66-.45 1.11l-12.33 25.38q-.39.79-1.08 1.34-.7.55-1.87.55h-4.03l12.58-24.86q.43-.77.84-1.41.42-.64.94-1.22h-15.57q-.52 0-.9-.39-.39-.38-.39-.9zm37.74 27.36h8.34q.9 0 1.43.5.53.51.53 1.34v3.33h-22.32v-1.84q0-.57.24-1.19.23-.62.75-1.11l9.88-9.9q1.24-1.26 2.21-2.41.98-1.14 1.64-2.27.65-1.12 1-2.28t.35-2.45q0-1.16-.34-2.05t-.96-1.5-1.48-.91q-.87-.3-1.95-.3-.99 0-1.83.28-.85.28-1.5.78-.65.51-1.1 1.19-.45.67-.68 1.48-.38 1.03-.99 1.37-.6.34-1.75.16l-2.93-.52q.34-2.34 1.31-4.1.97-1.77 2.42-2.95t3.33-1.78q1.88-.59 4.04-.59 2.25 0 4.11.66 1.87.66 3.2 1.88 1.33 1.21 2.07 2.92t.74 3.8q0 1.81-.53 3.34-.53 1.52-1.42 2.92-.88 1.4-2.08 2.7-1.19 1.3-2.49 2.66l-7.34 7.49q1.06-.32 2.1-.49 1.05-.16 2-.16m25.42 1.19q1.37 0 2.41-.4 1.03-.39 1.74-1.09t1.07-1.66q.36-.97.36-2.09 0-2.68-1.48-4.06-1.49-1.37-4.1-1.37t-4.09 1.37q-1.49 1.38-1.49 4.06 0 1.12.36 2.09.36.96 1.07 1.66t1.74 1.09q1.04.4 2.41.4m0-24.73q-1.24 0-2.14.38t-1.49 1.03q-.6.64-.88 1.47t-.28 1.76q0 .96.23 1.87.24.91.8 1.62.57.71 1.49 1.14t2.27.43 2.27-.43q.93-.43 1.49-1.14t.8-1.62q.23-.91.23-1.87 0-.93-.29-1.76t-.88-1.47q-.58-.65-1.48-1.03t-2.14-.38m5.49 11.75q2.97.96 4.39 2.95 1.42 2 1.42 4.88 0 2.16-.83 3.91-.82 1.76-2.3 2.99-1.49 1.24-3.57 1.91-2.08.68-4.6.68t-4.6-.68q-2.08-.67-3.57-1.91-1.48-1.23-2.3-2.99-.82-1.75-.82-3.91 0-2.88 1.41-4.88 1.42-1.99 4.39-2.95-2.36-.99-3.54-2.82-1.18-1.82-1.18-4.38 0-1.85.75-3.45.75-1.59 2.1-2.78 1.35-1.18 3.23-1.84t4.13-.66 4.13.66 3.23 1.84q1.35 1.19 2.1 2.78.76 1.6.76 3.45 0 2.56-1.19 4.38-1.18 1.83-3.54 2.82m23.02 4.81 7.9 12.15h-5.36q-.61 0-.98-.32-.37-.31-.62-.71l-4.88-8.04q-.11.38-.26.72-.14.34-.32.63l-4.32 6.69q-.25.38-.61.7-.36.33-.9.33h-4.97l7.92-11.9-7.61-11.19h5.36q.6 0 .9.17.29.17.51.56l4.84 7.69q.25-.76.7-1.51l3.89-6.07q.5-.84 1.28-.84h5.11zm15.45-10.62q0 2.72 1.41 4.15t4 1.43q1.34 0 2.4-.43 1.06-.42 1.78-1.17.72-.74 1.09-1.75t.37-2.18q0-1.33-.4-2.38-.41-1.04-1.15-1.76t-1.77-1.11q-1.02-.38-2.24-.38-1.25 0-2.27.42-1.01.41-1.73 1.16-.72.74-1.1 1.76-.39 1.03-.39 2.24m-2.72 22.77 10.11-12.62q.38-.47.72-.92.33-.45.65-.91-1.13.73-2.48 1.1t-2.83.37q-1.69 0-3.31-.59-1.62-.58-2.88-1.76-1.26-1.19-2.04-2.93-.77-1.74-.77-4.08 0-2.18.81-4.1.81-1.91 2.27-3.35t3.51-2.27 4.52-.83q2.5 0 4.49.78 1.99.79 3.4 2.21t2.16 3.4.75 4.34q0 1.51-.26 2.86-.25 1.35-.73 2.59-.47 1.25-1.15 2.45-.67 1.19-1.5 2.36l-7.45 10.62q-.38.54-1.15.91-.76.37-1.73.37zm46.37-16.27q0 4.26-.91 7.39-.91 3.14-2.52 5.19t-3.8 3.05-4.74 1q-2.54 0-4.71-1t-3.77-3.05-2.49-5.19q-.91-3.13-.91-7.39 0-4.27.91-7.4.89-3.13 2.49-5.17 1.6-2.05 3.77-3.05t4.71-1q2.55 0 4.74 1t3.8 3.05q1.61 2.04 2.52 5.17t.91 7.4m-5.73 0q0-3.53-.52-5.85-.52-2.31-1.38-3.69-.87-1.37-2-1.92-1.12-.55-2.34-.55-1.19 0-2.3.55-1.12.55-1.97 1.92-.86 1.38-1.36 3.69-.51 2.32-.51 5.85 0 3.54.51 5.85.5 2.32 1.36 3.69.85 1.38 1.97 1.93 1.11.55 2.3.55 1.22 0 2.34-.55 1.13-.55 2-1.93.86-1.37 1.38-3.69.52-2.31.52-5.85"/></svg>